<svg width="300" height="300" viewBox="0 0 1125 1125" version="1.1" xmlns="http://www.w3.org/2000/svg" desc="Created with imagetracer.js version 1.2.6" >
<path fill="rgb(0,0,0)" stroke="rgb(0,0,0)" stroke-width="1" opacity="0" d="M 0 0 L 1125 0 L 1125 529.5 L 1124 529.5 L 1124 516.5 L 1123 515.5 L 1123 505.5 L 1122 504.5 L 1122 496.5 L 1121 495.5 L 1119 474.5 L 1108 421.5 L 1091 367.5 L 1072 322.5 Q 1024.3 223.7 948.5 153 Q 869.8 77.7 758.5 35 L 704.5 18 L 651.5 7 L 630.5 5 L 629.5 4 L 621.5 4 L 620.5 3 L 596.5 2 L 595.5 1 L 534 1 L 536 8.5 L 535.5 10 Q 538.9 9.1 537 14.5 L 547 49.5 L 547 51.5 L 549 59 L 563.5 58 L 568.5 59 L 576.5 56 L 580.5 56 L 581.5 57 L 599.5 57 L 609.5 55 L 619.5 55 L 624.5 57 L 637.5 58 L 641.5 60 L 654 62 L 654.5 64 L 657.5 63 L 657.5 64 L 655 64.5 L 658.5 65 L 660.5 64 L 660.5 66 L 663.5 65 L 663.5 67 L 667.5 66 L 678 69.5 L 677.5 71 Q 679.8 71.8 679 69.5 L 681 70.5 L 679 71.5 L 681.5 72 L 683.5 71 L 683.5 73 L 686.5 72 L 689 73.5 L 687 74.5 L 693.5 77 L 695 76.5 L 695.5 78 L 697.5 77 L 737.5 97 L 756.5 110 L 758 109.5 L 759.5 113 L 777.5 126 L 784 129 Q 782.9 131.7 785.5 131 L 817 153 L 817.5 156 L 819 155.5 L 818 157.5 L 820 157.5 L 818.5 160 L 816.5 161 L 807.5 157 L 807 160.5 L 812.5 167 L 821 173.5 L 822.5 177 L 831.5 185 L 835 186 L 836.5 189 L 840 191.5 Q 839.3 193.8 841.5 193 L 845.5 198 L 848 199.5 L 847 201.5 L 850.5 202 L 862.5 211 L 864 210.5 Q 863.5 214.5 866.5 215 L 869 216.5 L 869.5 218 Q 870.8 215.7 872 218.5 L 871.5 220 L 873.5 219 L 877 221.5 L 876.5 223 L 878.5 222 L 879.5 225 L 881 224.5 L 880.5 223 L 891.5 228 Q 897.6 227.3 900 229 Q 901 232.8 898.5 234 L 879.5 234 L 877.5 236 L 866.5 238 L 849 238 L 851.5 242 Q 854.8 240.9 854 243.5 L 857.5 249 L 865 254 L 871.5 262 L 876.5 266 L 879 265 L 879 267 L 882 267 Q 880.9 269.7 883.5 269 L 886 273 L 890 274 L 893.5 279 Q 895.8 278.3 895 280.5 L 899 283 Q 897.9 285.7 900.5 285 L 903 289 Q 908.2 286.9 907 291.5 L 929.5 310 L 932 309 L 933.5 313 L 968.5 341 L 978 346 L 980.5 350 L 984 352.5 L 985.5 355 L 986.5 354 L 992.5 360 Q 994.8 359.3 994 361.5 L 997 363 L 998 367.5 L 996 377.5 L 997 380.5 L 994 386 L 990 388.5 Q 990.5 393.5 986.5 394 Q 984.3 393.3 985 395.5 L 961 427.5 L 962 428.5 L 956 434.5 L 948 447.5 L 950.5 449 L 952 448.5 L 939.5 462 Q 925.3 475.6 908 485 L 905 494 Q 912.5 492.8 916 496.5 L 917 500.5 L 914.5 503 L 901.5 507 L 899.5 506 L 899.5 508 L 887 513 Q 888.1 515.7 885.5 515 L 884 514.5 Q 884.5 518.5 881.5 519 L 880 519.5 L 880 528.5 L 875.5 531 L 857 535.5 L 857.5 537 L 849.5 543 L 847 543 Q 848.2 546.7 843 545 L 843 551.5 L 845 556.5 L 845 567.5 L 847 571.5 L 847 576.5 L 849 581.5 L 851 596 L 845 595.5 L 845.5 594 L 843 595.5 L 843 598.5 L 852.5 610 L 857.5 610 L 866 613.5 Q 866.8 618.3 863.5 619 L 856 624.5 L 857 630.5 L 856 632.5 L 858 632.5 L 858 641.5 L 855.5 644 L 852.5 643 L 842.5 633 L 834.5 642 L 831 640.5 L 831 638.5 L 831 629.5 L 829.5 629 L 817 618.5 L 818 615 L 834 604.5 L 835.5 600 L 837 600.5 L 836 597.5 Q 840.3 595.3 835.5 593 Q 830.8 593.8 830 590.5 L 829 575.5 L 827 568.5 L 828 566.5 L 826 558.5 L 826 550.5 L 827 547.5 L 825.5 545 L 817 548 L 818 550.5 L 818 576.5 L 819 577.5 L 818 582 L 815.5 583 L 812 580.5 L 810 575 L 805 574 L 806 579.5 L 805 580.5 L 805 591.5 L 803 597 L 794 596 L 794 598.5 L 786 610.5 L 767 631.5 L 767 633 L 764 634.5 L 763 638 Q 757 637 755.5 642 L 753.5 641 Q 755.2 643 751.5 645 L 749.5 644 L 750 645.5 Q 750.8 647.8 748.5 647 L 746.5 646 L 745.5 649 L 733.5 656 L 729.5 656 Q 727 654.8 728 651 Q 730.7 652.1 730 649.5 Q 734.3 646.6 735 641 Q 731.6 641.8 730.5 639 L 725.5 643 L 724 642.5 L 724 644.5 L 718 650.5 L 718 653.5 L 718.5 655 L 713.5 654 L 712 657 Q 702.9 661.3 696.5 669 L 684 676.5 L 683.5 678 L 681.5 677 L 672 682 Q 673.1 684.7 670.5 684 Q 669 686.5 667.5 683 L 666 683.5 L 666.5 685 L 664.5 684 L 664 686 L 657 687 L 655.5 684 L 647 689.5 L 656 708 Q 658.7 706.9 658 709.5 L 663 713 Q 661.9 715.7 664.5 715 L 668.5 718 L 673.5 718 L 676.5 717 L 679 720.5 Q 677.8 723.8 674 723 L 673 726.5 L 675.5 730 L 674 730.5 L 680.5 732 L 684 735.5 L 690 747 Q 693.7 748.5 693 745.5 L 698 732.5 L 700 721 L 702 721 L 702 719 Q 704.7 720.1 704 717.5 L 714 705 Q 716.7 706.1 716 703.5 Q 731.6 688.1 757.5 683 L 759.5 684 L 759.5 682 L 774.5 679 L 791.5 679 L 799 680.5 L 796 681.5 L 799.5 682 L 802.5 681 L 834.5 689 L 847 696.5 L 845 700.5 L 844 707.5 L 844 709.5 L 837 734.5 L 822 759 L 819.5 759 L 806.5 769 Q 799.5 773.7 790 775 Q 788.5 778.7 791.5 778 L 797.5 781 L 799 780.5 L 800.5 783 Q 810.3 787.3 817 794.5 L 818.5 797 Q 820.8 796.3 820 798.5 L 836 818.5 L 839 825 L 841 825.5 L 840 826.5 L 844 830.5 L 856.5 850 Q 859.8 848.9 859 851.5 L 859 853.5 L 863 860.5 L 862.5 862 L 865 863.5 L 886.5 898 L 891 901.5 L 900 915.5 L 899.5 917 L 902 918.5 L 914 946.5 L 913.5 948 Q 915.8 947.3 915 949.5 L 917 953.5 L 916 955.5 L 918 955.5 Q 924 967.5 933.5 976 Q 935.8 975.3 935 977.5 L 938 982 Q 957.8 968 974 948.5 Q 1042.4 876.4 1084 777.5 L 1098 739.5 L 1112 688.5 L 1121 638.5 L 1124.5 597 L 1125 1125 L 0 1125 L 0 597.5 L 1 597.5 L 2 621.5 L 3 622.5 L 3 630.5 L 4 631.5 L 4 638.5 L 5 639.5 L 8 664.5 L 17 705.5 L 28 742.5 Q 49.9 807.1 83.5 860 Q 88.3 855.9 89 849 L 92 847.5 L 95 840.5 L 118.5 806 L 120 805.5 L 120 803.5 L 123.5 799 Q 125.8 799.8 125 797.5 Q 131.2 784.2 141.5 775 L 148 772 L 148.5 770 L 151 771 L 154 760.5 L 161 747.5 L 182 718 Q 184.7 719.1 184 716.5 L 190 709 L 192 709 Q 190.9 706.3 193.5 707 L 197 702 L 201 699.5 Q 200.3 697.3 202.5 698 L 215.5 687 L 217 687.5 L 218.5 685 Q 226.5 678.5 238.5 676 L 240 676.5 Q 239.3 674.3 241.5 675 L 246.5 674 L 248.5 675 L 248.5 673 L 289.5 673 L 296 676 Q 295.9 668.5 290.5 665 L 289 664.5 Q 291.5 663 288 661.5 L 279 641.5 L 278 636.5 L 274.5 633 Q 272.3 632.3 273 634.5 L 272 638.5 L 273 641.5 L 272 642.5 L 272 652.5 L 269.5 655 L 266 653.5 L 266.5 652 L 264.5 653 L 258 649 L 255.5 645 Q 253.3 645.8 254 643.5 L 246 633.5 L 238 617.5 L 238 614.5 L 236 612.5 Q 238.5 611 235 609.5 L 233 599.5 L 233.5 598 Q 230.5 598.9 232 594.5 L 229 588.5 L 230 584.5 L 227.5 579 Q 224.2 577.9 225 580.5 L 224 583 Q 221.3 581.9 222 584.5 L 215 593 L 213 593 Q 214.1 595.7 211.5 595 L 206.5 599 L 205.5 598 L 201.5 602 L 196 605 L 196 607 L 191 607 L 190 604.5 Q 194.4 600.9 194.5 593 Q 195.8 595.3 197 592.5 L 203 581.5 L 202 577.5 L 206 571.5 L 216 537 L 218 536.5 L 217.5 535 L 219 535.5 L 217 532.5 L 219 523 Q 221.7 524.1 221 521.5 L 220 517.5 L 221 514.5 L 219.5 513 Q 213.8 511.8 211 507.5 L 206 497.5 L 206 494.5 L 206.5 493 Q 196.9 494.9 193 502.5 L 188 511 L 186 511 Q 187.1 513.7 184.5 513 L 181.5 517 L 179 518.5 L 166 534 Q 162.2 535 161 532.5 L 162 527 L 165 525.5 Q 164.3 523.3 166.5 524 L 183 504.5 L 189 491.5 L 189 480.5 L 188 479.5 L 188 470.5 L 186 459.5 L 178 442.5 Q 169.7 434.2 166 421.5 L 161 416.5 L 153 402.5 L 147 395.5 L 144 388.5 L 131 372.5 L 130 367 L 133 366.5 L 132 363.5 L 118.5 334 L 117 333.5 L 118 331.5 L 114 323.5 L 118 314.5 L 115 309.5 L 112 295.5 L 105 277.5 L 101 261.5 L 98 257.5 L 99 255.5 L 96.5 248 L 86 262.5 L 64 300.5 L 47 335.5 L 29 381.5 L 17 421.5 L 8 462.5 L 5 487.5 L 4 488.5 L 4 495.5 L 3 496.5 L 0.5 530 L 0 0 Z M 516 2 L 515 3 L 505 3 L 504 4 L 496 4 L 495 5 L 468 8 L 421 18 L 381 30 L 335 48 Q 244 89 177 153 Q 154 174 135 198 L 135 199 L 219 159 Q 221 160 220 157 L 224 157 L 256 141 L 272 135 L 274 133 L 277 133 L 285 127 L 313 117 L 318 117 L 328 113 L 332 113 L 340 109 L 343 109 L 347 106 L 364 99 L 369 95 Q 372 96 371 94 L 373 94 L 377 91 Q 379 92 378 89 L 385 87 L 392 82 L 372 77 L 368 78 L 368 77 L 352 76 L 349 73 L 353 67 Q 355 68 354 65 L 361 63 L 364 64 L 368 63 L 367 62 L 381 58 L 383 59 L 385 59 L 395 57 L 402 57 L 403 56 L 410 56 L 411 55 L 425 55 L 426 54 L 455 54 L 456 55 L 458 54 Q 461 53 460 56 L 479 57 L 480 58 L 490 58 L 491 59 L 502 60 L 502 62 L 505 61 L 506 62 L 505 62 L 505 63 L 508 62 L 517 65 Q 518 68 520 64 L 517 53 L 516 31 L 516 29 L 516 2 Z " />
<path fill="rgb(0,0,0)" stroke="rgb(0,0,0)" stroke-width="1" opacity="0.996078431372549" d="M 534 1 L 595.5 1 L 596.5 2 L 620.5 3 L 621.5 4 L 629.5 4 L 630.5 5 L 657.5 8 L 715.5 21 L 744.5 30 L 776.5 42 Q 893.1 91.4 973 177.5 Q 1048.4 256.1 1091 367.5 L 1108 421.5 L 1119 474.5 L 1121 495.5 L 1122 496.5 L 1122 504.5 L 1123 505.5 L 1123 515.5 L 1124 516.5 L 1124 529.5 L 1125 530.5 L 1125 596.5 L 1124 597.5 L 1124 610.5 L 1123 611.5 L 1123 621.5 L 1122 622.5 L 1122 630.5 L 1121 631.5 L 1119 652.5 L 1108 705.5 L 1091 759.5 L 1072 804.5 Q 1024.3 903.3 948.5 974 L 938 982 L 935 976 L 930 972.5 L 929.5 971 L 927.5 971 Q 925.3 971.8 926 969.5 L 926 967.5 L 917.5 955 L 916 955.5 L 917 953.5 L 915 948 L 912 946.5 L 913 943.5 L 912 943.5 L 911.5 945 L 910 941.5 L 911 938.5 L 909 936.5 L 905.5 926 L 904 926.5 L 905 924.5 L 903 924.5 L 904 922.5 L 901.5 918 L 900 918.5 L 900.5 917 L 899 916.5 L 899 914.5 L 887.5 898 L 885 896.5 Q 876.1 877.4 863.5 862 L 862 861.5 L 862 859.5 L 858 852.5 L 859 850 Q 855.2 850.8 854 847.5 L 852 842.5 L 840 826.5 L 840.5 825 Q 838.3 825.8 839 823.5 L 820 797 L 817 795.5 L 813.5 791 L 799 781.5 L 798.5 780 L 796.5 781 L 790 778 Q 788.5 774.3 791.5 775 L 806.5 769 L 819.5 759 L 822 759 L 837 734.5 L 841 720.5 L 840.5 719 L 842 719.5 L 843 711.5 L 845 708.5 L 844 704.5 L 847 696.5 L 845 696.5 Q 847.2 695.3 844.5 694 L 834.5 689 L 821.5 685 L 816.5 685 L 812.5 683 L 800.5 681 L 796.5 682 L 796.5 681 L 799 680.5 L 791.5 679 L 774.5 679 L 759 682.5 L 759.5 684 L 754.5 683 L 742 687.5 L 742.5 689 L 740.5 688 Q 726 693.5 716 703.5 L 714 706.5 Q 707.1 711.5 704 719 L 702 719 L 702 721 Q 699.3 719.9 700 722.5 L 698 732.5 L 693 747 Q 689.3 748.5 690 745.5 L 680.5 732 L 674 730.5 L 676 729.5 L 673 725.5 L 674 723 Q 677.8 723.8 679 720.5 L 677.5 718 L 676 718.5 L 676.5 717 L 668.5 718 L 666 717.5 L 666.5 716 L 663 715 Q 664.1 712.3 661.5 713 L 658 708 Q 655.3 709.1 656 706.5 L 647 689.5 L 655.5 684 L 657 687 L 664 686 L 664.5 684 L 666.5 685 L 666.5 683 L 669.5 685 L 672 684 Q 670.9 681.3 673.5 682 L 682.5 677 L 684 677.5 L 685 675.5 L 684.5 674 L 686.5 675 L 712 657 L 713.5 654 L 718.5 655 L 718 653.5 L 718 650.5 L 724 644.5 L 724.5 642 L 726.5 643 L 730.5 639 L 732.5 641 Q 735.8 639.9 735 642.5 L 730 651 Q 726.7 649.7 728 654.5 Q 729 657 733.5 656 L 740 652.5 L 739.5 651 L 741.5 652 L 746 648.5 Q 743.8 647.3 746.5 646 L 755.5 640 L 756.5 641 L 759.5 638 Q 763.9 639.5 763 636.5 L 765.5 633 Q 767.8 633.8 767 631.5 L 782 614.5 Q 779.3 612.7 783.5 611 Q 784.7 613.3 786 610.5 L 794 598.5 L 794 596 L 803 597 L 805 591.5 L 806 576.5 L 805 574 L 810 575 L 813.5 582 L 815.5 583 L 818 582 L 819 577.5 L 818 576.5 L 818 550.5 L 817 548 L 825.5 545 L 827 547.5 L 826 550.5 L 826 558.5 L 828 567.5 L 828 569.5 L 829 585.5 L 830 590.5 L 832.5 593 Q 837.3 592.3 838 595.5 Q 834.5 597 837 598.5 L 836.5 601 L 835 600.5 L 836 602.5 L 834 602.5 Q 834.5 606.5 831.5 607 L 824.5 610 L 818 615 L 817 618.5 L 831 629 L 831 638.5 L 832 639.5 Q 829.8 640.8 832.5 642 L 834.5 642 L 842 634.5 L 842.5 633 L 852.5 643 L 855.5 644 L 858 641.5 L 858 632.5 L 856 632.5 L 857 629.5 L 856 624.5 L 866 616.5 Q 866.8 612.8 864.5 612 L 857.5 610 L 852.5 610 L 850 607.5 L 844.5 600 L 843 600.5 L 843 598.5 Q 842.3 594.8 844.5 594 L 846 594.5 L 845.5 596 Q 852.8 598.6 851 592.5 L 847 576.5 L 847 571.5 L 845 567.5 L 845 556.5 Q 842 552.3 843 545 L 847 545 Q 845.8 542 849.5 543 L 858 536.5 L 857.5 535 L 861.5 535 L 875.5 531 L 880 528.5 L 880 519.5 L 881.5 519 L 884.5 514 L 887 515 Q 885.9 512.3 888.5 513 L 898 508.5 L 897.5 507 L 899.5 508 L 899.5 506 L 901.5 507 L 914.5 503 L 917 500.5 L 914.5 495 L 905.5 494 Q 904.3 496.3 903 493.5 L 905 493.5 L 908 485 L 910 484.5 Q 907.8 483.3 910.5 482 L 912.5 483 L 912.5 481 L 914.5 481 Q 936 468 952 449.5 L 951.5 448 L 949.5 449 Q 946.8 447.8 949 446.5 L 956 434.5 L 962 428.5 L 961 427.5 L 964 424.5 L 983 397.5 Q 980.8 396.3 983.5 395 L 985 395.5 Q 984.3 393.3 986.5 394 L 992.5 386 Q 994.8 386.8 994 384.5 L 997 378.5 L 996 373.5 L 998 365.5 L 997 363 L 994 361.5 Q 994.8 359.3 992.5 360 L 986.5 354 Q 985.3 356.3 984 353.5 L 981.5 350 L 978 347.5 Q 978.8 345.3 976.5 346 L 933.5 313 Q 931.8 315.8 930 311.5 L 932 311.5 Q 933.1 308.2 930.5 309 L 929.5 310 L 925.5 306 L 907 291.5 L 907 289 L 903 289 L 903 287.5 L 899 285 Q 900.1 282.3 897.5 283 L 895 279 L 890 275.5 Q 890.8 273.3 888.5 274 L 886 273 L 883.5 269 L 877.5 265 L 876.5 266 L 872.5 262 L 865 255.5 Q 865.8 253.3 863.5 254 L 856 247.5 L 854 242 Q 850.2 242.8 849 239.5 L 849.5 238 L 866.5 238 L 877.5 236 L 879.5 234 L 898.5 234 L 900 232.5 Q 901.5 228.1 898.5 229 L 883.5 225 L 882 225.5 L 882.5 224 L 879.5 225 L 876 222.5 L 876.5 221 L 874.5 220 L 872.5 220 L 869 217.5 L 867.5 215 L 864 212.5 L 863.5 210 L 862.5 211 L 858.5 207 L 846 200.5 L 848 200.5 L 846.5 198 L 843 195.5 L 841.5 193 Q 839.3 193.8 840 191.5 L 835 187.5 Q 835.8 185.3 833.5 186 L 821 175.5 Q 821.5 170.5 817.5 170 L 808 162.5 L 807 157.5 L 807.5 155 L 808.5 158 L 816.5 161 L 820 158.5 L 819.5 157 L 818 157.5 L 817 153 L 815 153.5 L 815.5 155 L 813.5 151 L 811.5 150 L 808 151 L 808.5 149 L 810.5 150 L 809.5 148 L 801.5 143 L 799.5 143 L 796 140.5 L 798.5 142 L 800 141.5 L 784 131 Q 785.1 128.3 782.5 129 L 758 111.5 L 757.5 109 L 755.5 109 L 737.5 97 L 715.5 87 L 705.5 80 L 696.5 77 L 695 77.5 L 694.5 76 L 691.5 77 L 683 72.5 L 683.5 71 L 679.5 72 L 677 70.5 L 677.5 69 L 665.5 66 L 663.5 67 L 660 65.5 L 660.5 64 L 655.5 65 L 654 62 L 641.5 60 L 637.5 58 L 624.5 57 L 619.5 55 L 609.5 55 L 599.5 57 L 581.5 57 L 576.5 56 L 573.5 58 L 564.5 59 L 561.5 58 L 560.5 59 L 549 59 L 546 50.5 L 547 48.5 L 544 41.5 L 543 32.5 L 539 22.5 L 537 10 L 535 9.5 L 536 6.5 L 534 1 Z " />
<path fill="rgb(0,0,0)" stroke="rgb(0,0,0)" stroke-width="1" opacity="0.996078431372549" d="M 515.5 2 L 516 28.5 L 516 30.5 L 517 52.5 L 520 63.5 Q 518.3 67.8 516.5 65 L 509.5 63 L 507.5 64 L 501 61.5 L 501.5 60 L 490.5 59 L 489.5 58 L 479.5 58 L 478.5 57 L 460 56 Q 461.3 53 457.5 54 L 455.5 55 L 454.5 54 L 425.5 54 L 424.5 55 L 410.5 55 L 409.5 56 L 402.5 56 L 401.5 57 L 394.5 57 L 384.5 59 L 382.5 59 L 380.5 58 L 367 61.5 L 367.5 63 L 363.5 64 L 360.5 63 L 354 65 Q 355.1 67.7 352.5 67 L 349 72.5 L 351.5 76 L 367.5 76 L 368.5 75 L 368.5 77 L 392 81.5 L 384.5 87 L 378 89 Q 376.9 91.7 379.5 91 L 382.5 89 L 381.5 91 L 378.5 92 L 376.5 91 L 372.5 94 L 371 93.5 Q 370.3 95.8 372.5 95 L 372.5 96 L 370.5 97 L 370.5 95 L 357 101.5 L 357.5 103 L 355.5 102 L 349 105.5 Q 351.3 106.8 348.5 108 L 347 107.5 L 349 106.5 L 346.5 106 L 342.5 109 L 339.5 109 L 331.5 113 L 327.5 113 L 317.5 117 L 312.5 117 L 284.5 127 L 276.5 133 L 273.5 133 L 271.5 135 L 255.5 141 L 223.5 157 L 220 157 Q 221.1 159.7 218.5 159 L 142 195.5 L 142.5 197 L 140.5 196 L 133.5 200 L 135 197.5 Q 154 173.5 176.5 153 Q 243.8 88.8 334.5 48 L 380.5 30 L 420.5 18 L 467.5 8 L 494.5 5 L 495.5 4 L 503.5 4 L 504.5 3 L 514.5 3 L 515.5 2 Z " />
<path fill="rgb(0,0,0)" stroke="rgb(0,0,0)" stroke-width="1" opacity="0.996078431372549" d="M 96.5 248 L 99 256.5 L 98 258.5 L 101 261.5 L 105 277.5 L 107 280.5 L 118 316.5 L 114 323.5 L 116 325.5 L 118 332.5 L 117.5 334 L 120 335.5 L 127 353.5 L 133 364.5 L 132.5 367 Q 128.8 365.8 130 369.5 L 144 388.5 L 147 395.5 L 151 399.5 L 161 416.5 L 166 421.5 L 169 429.5 L 178 442.5 L 185 456.5 L 188 470.5 L 189 491.5 L 188 494.5 L 188.5 496 L 187 495.5 L 188 498.5 L 186.5 501 L 185.5 499 Q 178 513.5 166.5 524 Q 164.3 523.3 165 525.5 L 162 527 L 161 532.5 Q 162.2 535 166 534 L 166 532.5 L 180.5 517 L 183 515.5 L 184.5 513 L 186 513 L 186 511 Q 188.7 512.1 188 509.5 L 200.5 495 L 206.5 493 L 206 494.5 L 206 497.5 L 211 507.5 L 214.5 511 L 222 515.5 Q 219.3 516.3 220 520.5 L 221 523 Q 217.7 521.7 219 526.5 L 217 534 Q 219.7 532.9 219 535.5 L 216 537 L 215 543.5 L 213 545.5 L 211 556.5 L 206 571.5 L 202 577.5 L 202 580.5 Q 204.5 582 201 583.5 Q 199.8 590.3 195.5 594 L 194 593.5 L 194 597.5 L 190 604.5 L 191 607 L 196 607 Q 194.9 604.3 197.5 605 L 200.5 600 L 200.5 602 L 203 600.5 L 202.5 599 L 203.5 600 L 207.5 598 L 210 596.5 L 209.5 595 L 211.5 595 L 213 595 L 213 593 Q 215.7 594.1 215 591.5 L 220 586.5 L 219.5 585 Q 220.8 587.3 222 584.5 L 224 581.5 L 225 579 L 229 580.5 L 230 587.5 Q 227.5 589 231 590.5 L 232 598 L 234 598.5 L 233 601.5 Q 235.7 603.8 235 609.5 L 237 611.5 Q 234.5 613 238 614.5 L 238 617.5 L 242.5 626 L 244 625.5 L 243 627.5 L 245 627.5 L 244 629.5 L 246 629.5 L 245 631.5 L 247.5 635 L 249 634.5 L 249 636.5 L 254 645 L 258 647.5 Q 257.3 649.8 259.5 649 L 263.5 652 L 265.5 652 L 267 652.5 Q 264.8 653.8 267.5 655 Q 271.5 655.5 272 652.5 Q 270.8 644.3 273 639.5 L 272 635.5 L 273 633 L 276.5 635 L 278 634.5 L 278 636.5 Q 282.1 651.9 290 663.5 L 289.5 665 L 292 666.5 L 296 672.5 L 296 676 L 289.5 673 L 248.5 673 L 248.5 675 L 242.5 676 L 240 675 L 239.5 677 L 237.5 676 L 222.5 682 L 217 686.5 L 214.5 690 L 212.5 690 L 201 698 L 198.5 702 Q 196.3 701.3 197 703.5 L 192 707 L 192 709 Q 189.3 707.9 190 710.5 L 184 718 Q 181.3 716.9 182 719.5 L 173 729.5 L 161 747.5 L 154 760.5 L 151 771 L 148.5 770 L 148 772 Q 141.7 773.1 138 778.5 Q 129.3 787 125 799 L 120 802.5 L 119 804.5 L 119.5 806 L 117 807.5 L 116 809.5 Q 118.3 810.8 115.5 812 L 114 811.5 L 115 813.5 L 113 813.5 L 114 815.5 L 110 817.5 L 102 831.5 L 102.5 833 Q 101.2 830.8 100 833.5 L 90.5 849 Q 87.9 848.2 89 851.5 L 83.5 860 Q 63 828 47 791.5 L 29 745.5 L 17 705.5 L 8 664.5 L 5 639.5 L 4 638.5 L 4 631.5 L 3 630.5 L 3 622.5 L 2 621.5 L 1 597.5 L 0 596.5 L 0 530.5 L 1 529.5 L 1 516.5 L 2 515.5 L 3 496.5 L 4 495.5 L 4 488.5 L 5 487.5 L 8 462.5 L 17 421.5 L 29 381.5 L 47 335.5 L 64 300.5 L 86 262.5 L 96.5 248 Z " />
</svg>